# xmcd
#
# Track frame offsets: 
#        150
#        21152
#        37881
#        57111
#        73768
#        88488
#        103312
#        121679
#        136762
#        152354
#        168169
#        187661
#        203425
#        217212
#        238804
#        253264
#        269011
#        286252
#        304771
#        314446
#        338115
#
# Disc length: 4800 seconds
#
# Revision: 2
# Processed by: cddbd v1.5.2PL0 Copyright (c) Steve Scherf et al.
# Submitted via: ExactAudioCopy v1.3
#
DISCID=2f12be15
DTITLE=Various Artist - Akella Presents - vol. 09 - Americana  CD2
DYEAR=2013
DGENRE=Americana
TTITLE0=BIG HOUSE - I Walk Alone
TTITLE1=SHAVER - Manual Labor
TTITLE2=HANK SHIZZOE - (You Can Keep On) Fallin' Forever And Ever
TTITLE3=LYNYRD SKYNYRD - Hillbilly Blues
TTITLE4=JIMMY NAIL - Cowboy  Dreams
TTITLE5=The UNDERDOGS - Bayou Country
TTITLE6=JOHN HIATT - Same Old Man
TTITLE7=VINCE GILL - The Sun's Gonna Shine On You
TTITLE8=ALBERT LEE and HOGAN'S HEROES - Gone Too Long
TTITLE9=WILEY HURT - Shotgun Shack
TTITLE10=MARK KNOPFLER - Stretching Out
TTITLE11=J.J.CALE and ERIC CLAPTON - Dead End Road
TTITLE12=CHRIS ISAAK - Back On Your Side
TTITLE13=LOS LOBOS - The Town
TTITLE14=PETER KARP - Rubber Bands And Wire
TTITLE15=NORAH JONES - What Am I To You
TTITLE16=CALVIN RUSSELL - To you my love
TTITLE17=JOHN HAMMOND - Serve Me Right To Suffer
TTITLE18=J.J.CALE - Precious Memories
TTITLE19=KEB' MO' - A Better Man
TTITLE20=The NOTTING HILLBILLIES - Feel Like Going Home
EXTD=
EXTT0=
EXTT1=
EXTT2=
EXTT3=
EXTT4=
EXTT5=
EXTT6=
EXTT7=
EXTT8=
EXTT9=
EXTT10=
EXTT11=
EXTT12=
EXTT13=
EXTT14=
EXTT15=
EXTT16=
EXTT17=
EXTT18=
EXTT19=
EXTT20=
PLAYORDER=
